HIERARCHY
ROOT Root
{
  OFFSET 0.0 0.0 0.0
  CHANNELS 6 Xposition Yposition Zposition Zrotation Yrotation Xrotation
  JOINT Hips
  {
    OFFSET 0.0 100.0 0.0
    CHANNELS 6 Xposition Yposition Zposition Zrotation Yrotation Xrotation
    JOINT Spine1
    {
      OFFSET -0.013727 5.003763 -0.053727
      CHANNELS 3 Zrotation Yrotation Xrotation
      JOINT Spine2
      {
        OFFSET -0.0 7.125301 -0.029825
        CHANNELS 3 Zrotation Yrotation Xrotation
        JOINT Chest
        {
          OFFSET -1e-06 7.550063 -0.815971
          CHANNELS 3 Zrotation Yrotation Xrotation
          JOINT Neck1
          {
            OFFSET -0.181677 26.311295 -0.553348
            CHANNELS 3 Zrotation Yrotation Xrotation
            JOINT Neck2
            {
              OFFSET -3e-06 7.709397 2.302585
              CHANNELS 3 Zrotation Yrotation Xrotation
              JOINT Head
              {
                OFFSET -5e-06 6.128916 1.953709
                CHANNELS 3 Zrotation Yrotation Xrotation
                JOINT HeadEnd
                {
                  OFFSET 0.003598 16.065403 -1.835379
                  CHANNELS 3 Zrotation Yrotation Xrotation
                }
                JOINT Jaw
                {
                  OFFSET 0.002637 0.475592 3.094941
                  CHANNELS 3 Zrotation Yrotation Xrotation
                }
                JOINT LeftEye
                {
                  OFFSET 3.206381 5.380205 7.586883
                  CHANNELS 3 Zrotation Yrotation Xrotation
                }
                JOINT RightEye
                {
                  OFFSET -3.22244 5.361869 7.558234
                  CHANNELS 3 Zrotation Yrotation Xrotation
                }
              }
            }
          }
          JOINT LeftShoulder
          {
            OFFSET 1.621652 23.237164 5.113413
            CHANNELS 3 Zrotation Yrotation Xrotation
            JOINT LeftArm
            {
              OFFSET 14.919846 2e-06 -5.502326
              CHANNELS 3 Zrotation Yrotation Xrotation
              JOINT LeftForeArm
              {
                OFFSET 28.739307 0.0 -0.002588
                CHANNELS 3 Zrotation Yrotation Xrotation
                JOINT LeftHand
                {
                  OFFSET 27.093981 -1e-06 0.002609
                  CHANNELS 3 Zrotation Yrotation Xrotation
                  JOINT LeftHandThumb1
                  {
                    OFFSET 2.276482 -1.392045 3.191413
                    CHANNELS 3 Zrotation Yrotation Xrotation
                    JOINT LeftHandThumb2
                    {
                      OFFSET 4.012836 -1.828127 1.641654
                      CHANNELS 3 Zrotation Yrotation Xrotation
                      JOINT LeftHandThumb3
                      {
                        OFFSET 2.798515 0.0 -3e-06
                        CHANNELS 3 Zrotation Yrotation Xrotation
                        JOINT LeftHandThumbEnd
                        {
                          OFFSET 3.180793 -4e-06 4e-06
                          CHANNELS 3 Zrotation Yrotation Xrotation
                        }
                      }
                    }
                  }
                  JOINT LeftHandIndex1
                  {
                    OFFSET 3.247555 -0.531998 2.296169
                    CHANNELS 3 Zrotation Yrotation Xrotation
                    JOINT LeftHandIndex2
                    {
                      OFFSET 6.364578 0.01206 0.1786
                      CHANNELS 3 Zrotation Yrotation Xrotation
                      JOINT LeftHandIndex3
                      {
                        OFFSET 3.662364 0.0 0.0
                        CHANNELS 3 Zrotation Yrotation Xrotation
                        JOINT LeftHandIndex4
                        {
                          OFFSET 2.329242 4e-06 4e-06
                          CHANNELS 3 Zrotation Yrotation Xrotation
                          JOINT LeftHandIndexEnd
                          {
                            OFFSET 2.759615 -0.180537 -0.113024
                            CHANNELS 3 Zrotation Yrotation Xrotation
                          }
                        }
                      }
                    }
                  }
                  JOINT LeftHandMiddle1
                  {
                    OFFSET 3.163495 0.240981 1.000332
                    CHANNELS 3 Zrotation Yrotation Xrotation
                    JOINT LeftHandMiddle2
                    {
                      OFFSET 6.19078 -0.259278 -1.002548
                      CHANNELS 3 Zrotation Yrotation Xrotation
                      JOINT LeftHandMiddle3
                      {
                        OFFSET 4.35652 -4e-06 -1e-06
                        CHANNELS 3 Zrotation Yrotation Xrotation
                        JOINT LeftHandMiddle4
                        {
                          OFFSET 2.996877 -8e-06 0.0
                          CHANNELS 3 Zrotation Yrotation Xrotation
                          JOINT LeftHandMiddleEnd
                          {
                            OFFSET 2.304287 -0.294569 -0.031741
                            CHANNELS 3 Zrotation Yrotation Xrotation
                          }
                        }
                      }
                    }
                  }
                  JOINT LeftHandRing1
                  {
                    OFFSET 2.882643 -0.053652 -0.322543
                    CHANNELS 3 Zrotation Yrotation Xrotation
                    JOINT LeftHandRing2
                    {
                      OFFSET 5.854541 -0.486202 -1.373841
                      CHANNELS 3 Zrotation Yrotation Xrotation
                      JOINT LeftHandRing3
                      {
                        OFFSET 4.350578 0.0 3e-06
                        CHANNELS 3 Zrotation Yrotation Xrotation
                        JOINT LeftHandRing4
                        {
                          OFFSET 2.651321 7e-06 2e-06
                          CHANNELS 3 Zrotation Yrotation Xrotation
                          JOINT LeftHandRingEnd
                          {
                            OFFSET 1.936105 0.077687 -7.1e-05
                            CHANNELS 3 Zrotation Yrotation Xrotation
                          }
                        }
                      }
                    }
                  }
                  JOINT LeftHandPinky1
                  {
                    OFFSET 2.8655 -0.310005 -1.600378
                    CHANNELS 3 Zrotation Yrotation Xrotation
                    JOINT LeftHandPinky2
                    {
                      OFFSET 5.087849 -1.331141 -1.77123
                      CHANNELS 3 Zrotation Yrotation Xrotation
                      JOINT LeftHandPinky3
                      {
                        OFFSET 3.070974 4e-06 0.0
                        CHANNELS 3 Zrotation Yrotation Xrotation
                        JOINT LeftHandPinky4
                        {
                          OFFSET 1.549672 0.0 1e-06
                          CHANNELS 3 Zrotation Yrotation Xrotation
                          JOINT LeftHandPinkyEnd
                          {
                            OFFSET 1.944893 -0.157802 0.057219
                            CHANNELS 3 Zrotation Yrotation Xrotation
                          }
                        }
                      }
                    }
                  }
                }
              }
            }
          }
          JOINT RightShoulder
          {
            OFFSET -1.380118 23.180309 5.214158
            CHANNELS 3 Zrotation Yrotation Xrotation
            JOINT RightArm
            {
              OFFSET -15.037196 1.2e-05 -5.545604
              CHANNELS 3 Zrotation Yrotation Xrotation
              JOINT RightForeArm
              {
                OFFSET -28.736639 2e-06 -0.002597
                CHANNELS 3 Zrotation Yrotation Xrotation
                JOINT RightHand
                {
                  OFFSET -27.133619 -0.0 0.002613
                  CHANNELS 3 Zrotation Yrotation Xrotation
                  JOINT RightHandThumb1
                  {
                    OFFSET -2.274032 -1.383988 3.163127
                    CHANNELS 3 Zrotation Yrotation Xrotation
                    JOINT RightHandThumb2
                    {
                      OFFSET -4.011429 -1.827466 1.640914
                      CHANNELS 3 Zrotation Yrotation Xrotation
                      JOINT RightHandThumb3
                      {
                        OFFSET -2.794935 -4e-06 -3e-06
                        CHANNELS 3 Zrotation Yrotation Xrotation
                        JOINT RightHandThumbEnd
                        {
                          OFFSET -3.183852 4e-06 1e-06
                          CHANNELS 3 Zrotation Yrotation Xrotation
                        }
                      }
                    }
                  }
                  JOINT RightHandIndex1
                  {
                    OFFSET -3.253266 -0.520057 2.282866
                    CHANNELS 3 Zrotation Yrotation Xrotation
                    JOINT RightHandIndex2
                    {
                      OFFSET -6.341917 0.012471 0.178266
                      CHANNELS 3 Zrotation Yrotation Xrotation
                      JOINT RightHandIndex3
                      {
                        OFFSET -3.654871 -8e-06 -0.0
                        CHANNELS 3 Zrotation Yrotation Xrotation
                        JOINT RightHandIndex4
                        {
                          OFFSET -2.327586 0.0 1e-06
                          CHANNELS 3 Zrotation Yrotation Xrotation
                          JOINT RightHandIndexEnd
                          {
                            OFFSET -2.76179 -0.180656 -0.113078
                            CHANNELS 3 Zrotation Yrotation Xrotation
                          }
                        }
                      }
                    }
                  }
                  JOINT RightHandMiddle1
                  {
                    OFFSET -3.168106 0.246593 1.00103
                    CHANNELS 3 Zrotation Yrotation Xrotation
                    JOINT RightHandMiddle2
                    {
                      OFFSET -6.180828 -0.258836 -1.000895
                      CHANNELS 3 Zrotation Yrotation Xrotation
                      JOINT RightHandMiddle3
                      {
                        OFFSET -4.348901 0.0 -0.0
                        CHANNELS 3 Zrotation Yrotation Xrotation
                        JOINT RightHandMiddle4
                        {
                          OFFSET -3.00024 -4e-06 -2e-06
                          CHANNELS 3 Zrotation Yrotation Xrotation
                          JOINT RightHandMiddleEnd
                          {
                            OFFSET -2.30252 -0.29437 -0.031706
                            CHANNELS 3 Zrotation Yrotation Xrotation
                          }
                        }
                      }
                    }
                  }
                  JOINT RightHandRing1
                  {
                    OFFSET -2.88569 -0.067952 -0.308858
                    CHANNELS 3 Zrotation Yrotation Xrotation
                    JOINT RightHandRing2
                    {
                      OFFSET -5.854198 -0.48613 -1.373731
                      CHANNELS 3 Zrotation Yrotation Xrotation
                      JOINT RightHandRing3
                      {
                        OFFSET -4.33881 -4e-06 -0.0
                        CHANNELS 3 Zrotation Yrotation Xrotation
                        JOINT RightHandRing4
                        {
                          OFFSET -2.654903 -4e-06 4e-06
                          CHANNELS 3 Zrotation Yrotation Xrotation
                          JOINT RightHandRingEnd
                          {
                            OFFSET -1.933568 0.077527 -5.2e-05
                            CHANNELS 3 Zrotation Yrotation Xrotation
                          }
                        }
                      }
                    }
                  }
                  JOINT RightHandPinky1
                  {
                    OFFSET -2.866425 -0.342796 -1.584145
                    CHANNELS 3 Zrotation Yrotation Xrotation
                    JOINT RightHandPinky2
                    {
                      OFFSET -5.091371 -1.332055 -1.772385
                      CHANNELS 3 Zrotation Yrotation Xrotation
                      JOINT RightHandPinky3
                      {
                        OFFSET -3.062664 -4e-06 1e-06
                        CHANNELS 3 Zrotation Yrotation Xrotation
                        JOINT RightHandPinky4
                        {
                          OFFSET -1.546529 4e-06 -2e-06
                          CHANNELS 3 Zrotation Yrotation Xrotation
                          JOINT RightHandPinkyEnd
                          {
                            OFFSET -1.945119 -0.157718 0.057211
                            CHANNELS 3 Zrotation Yrotation Xrotation
                          }
                        }
                      }
                    }
                  }
                }
              }
            }
          }
        }
      }
    }
    JOINT LeftLeg
    {
      OFFSET 10.043214 -8.434526 2.595655
      CHANNELS 3 Zrotation Yrotation Xrotation
      JOINT LeftShin
      {
        OFFSET -1e-06 -43.221752 -0.802913
        CHANNELS 3 Zrotation Yrotation Xrotation
        JOINT LeftFoot
        {
          OFFSET 1e-06 -42.155094 -3.481523
          CHANNELS 3 Zrotation Yrotation Xrotation
          JOINT LeftToeBase
          {
            OFFSET 0.0 -5.059472 13.231529
            CHANNELS 3 Zrotation Yrotation Xrotation
            JOINT LeftToeEnd
            {
              OFFSET -0.009607 -1.647619 6.513017
              CHANNELS 3 Zrotation Yrotation Xrotation
            }
          }
        }
      }
    }
    JOINT RightLeg
    {
      OFFSET -10.047278 -8.29526 2.620317
      CHANNELS 3 Zrotation Yrotation Xrotation
      JOINT RightShin
      {
        OFFSET 1e-06 -43.362206 -0.805556
        CHANNELS 3 Zrotation Yrotation Xrotation
        JOINT RightFoot
        {
          OFFSET 2e-06 -42.117393 -3.478398
          CHANNELS 3 Zrotation Yrotation Xrotation
          JOINT RightToeBase
          {
            OFFSET -0.0 -5.079609 13.284196
            CHANNELS 3 Zrotation Yrotation Xrotation
            JOINT RightToeEnd
            {
              OFFSET 0.009532 -1.634378 6.460591
              CHANNELS 3 Zrotation Yrotation Xrotation
            }
          }
        }
      }
    }
  }
}
MOTION
Frames: 4
Frame Time: 0.03333333333333333
0.0 0.0 0.0 0.0 -0.0 0.0 0.398093 98.718132 0.232927 0.714219 -0.661599 3.310385 0.046227 -0.31 -2.475693 -0.284033 -0.652486 -5.839969 -0.072601 -2.683882 10.996635 -0.576168 2.468286 -5.861339 -1.060337 -0.937301 -3.550573 2.807361 -3.768447 -8.953017 7.7e-05 -2.3e-05 6e-06 -0.00929 -0.015803 0.004708 0.699595 -3.761332 -10.57217 -0.720686 3.727377 -10.59816 -15.882313 -3.887743 14.151004 -56.37125 -5.156775 18.79826 0.186128 -29.406403 -0.031191 -0.470668 -4.462844 -18.960024 -5.882109 9.86129 0.70259 -10.936873 -0.360574 7.156204 -1e-06 8.774828 -1e-06 -16.093134 17.919802 6.253295 -1.844033 2.498505 -2.507278 -10.163601 4.678948 4.621109 -20.976027 -2e-06 1e-06 -21.226294 2.451698 -3.594005 1e-06 -7e-06 0.0 -1.362682 2.2408 -0.746323 -21.334917 0.584912 3.008321 -13.821216 -1e-06 -0.0 -23.887177 -0.24908 -0.839487 -60.554977 2.495564 -0.879353 -0.294025 1.679687 0.833256 -14.21821 0.093217 1.300581 -34.212048 -0.287562 0.967167 -20.033215 0.964538 1.21284 1e-06 0.0 -1e-06 -3.440389 0.788233 0.501655 -15.928189 -3.167308 2.999707 -6.338827 -0.0 0.0 -18.123449 3.648183 -4.905673 -2e-06 0.0 -2e-06 14.05179 7.706511 16.440399 56.47337 19.415697 27.843756 0.386639 20.652946 0.106129 0.615094 5.013031 -4.644469 2.243542 -5.255038 -3.180159 14.282893 -0.826597 6.952504 -0.0 -12.690606 1e-06 16.293594 -17.784695 2.452888 1.665667 -1.955922 -2.8783 4.727801 -4.170589 4.993925 11.020528 0.0 0.0 12.109055 -3.735718 -2.866784 -1e-06 -0.0 1e-06 1.291986 -1.928549 -1.498086 14.800129 0.567466 3.865608 14.242574 -1.341738 -6.660661 19.631969 0.143924 -0.648246 49.825443 -0.491828 -6.360333 0.353029 -1.511151 -0.031937 20.222792 3.684307 2.316628 18.787275 2e-06 -2e-06 10.751629 -0.479871 1.397907 -1e-06 1e-06 0.0 3.273808 0.305946 -0.580112 21.486814 11.830373 2.266133 8.16293 2e-06 -0.0 18.399086 -3.79899 -4.940578 3e-06 -0.0 -1e-06 4.78675 0.427015 -5.868227 0.076373 -0.044781 15.116805 -7.636128 4.274106 -12.660942 1.613184 -1.965152 -0.694625 0.0 -0.0 2e-06 -8.058591 1.419075 -6.31609 -0.057039 0.16626 15.163385 9.470951 -10.296342 -12.446908 -1.419825 1.013643 -0.517462 0.0 0.0 -1e-06 
0.0 0.0 0.0 0.0 -0.0 0.0 0.571277 98.323639 0.099116 0.997494 -0.435306 3.616261 0.078124 -0.348695 -2.038022 -0.250229 -0.654665 -5.632057 -0.197521 -2.783902 10.613683 -0.713028 2.53347 -6.021146 -1.060508 -1.043637 -3.533697 2.66964 -4.017451 -9.499137 7.7e-05 -2.2e-05 6e-06 8.8e-05 0.01332 -0.005913 0.698999 -3.730805 -10.516171 -0.701943 3.753842 -10.553297 -15.022073 -4.061666 14.321164 -57.620468 -5.365657 17.454025 -0.018147 -29.454983 0.058651 -1.036214 -4.911995 -19.422834 -5.882109 9.861288 0.702591 -10.936875 -0.360574 7.156209 0.0 8.774828 -0.0 -16.099806 17.86791 6.19797 -1.844033 2.498505 -2.507277 -10.163603 4.678947 4.621111 -20.97603 -1e-06 4e-06 -21.226295 2.451699 -3.594 -1e-06 -6e-06 0.0 -1.362682 2.240798 -0.746322 -21.334923 0.584911 3.008325 -13.821217 -0.0 2e-06 -23.887175 -0.249077 -0.839484 -60.562927 2.506637 -0.850281 -0.294025 1.679688 0.833256 -14.218214 0.093216 1.300582 -34.212059 -0.28756 0.967171 -20.03322 0.96454 1.212842 1e-06 -1e-06 -2e-06 -3.44039 0.788235 0.501656 -15.928192 -3.16731 2.999707 -6.338829 -0.0 2e-06 -18.123455 3.648185 -4.905673 -2e-06 1e-06 -2e-06 12.922324 7.783633 16.544819 58.074715 19.648336 27.044212 0.410743 21.239319 0.154194 0.339283 4.956258 -5.270669 2.243542 -5.255037 -3.180159 14.282897 -0.826595 6.952507 -3e-06 -12.690607 2e-06 16.325151 -17.719032 2.430239 1.665667 -1.955921 -2.8783 4.727801 -4.170589 4.993926 11.020532 3e-06 -1e-06 12.109058 -3.735715 -2.866786 -0.0 0.0 -1e-06 1.291986 -1.92855 -1.49809 14.800136 0.567469 3.865608 14.242579 -1.341735 -6.660659 19.631975 0.143927 -0.648245 49.80341 -0.47983 -6.368226 0.35303 -1.511151 -0.031938 20.222801 3.684312 2.316631 18.787283 8e-06 -2e-06 10.751633 -0.479868 1.397906 0.0 0.0 0.0 3.273808 0.305948 -0.580112 21.486824 11.830379 2.266132 8.162933 3e-06 -0.0 18.399094 -3.798984 -4.940575 4e-06 -1e-06 -1e-06 4.384894 0.22877 -7.819282 0.051714 -0.124084 18.167952 -7.6648 4.096078 -14.142626 1.629995 -1.990809 -0.859503 0.0 -0.0 2e-06 -8.45896 1.894182 -8.260596 -0.061727 0.229929 18.44669 9.780524 -10.915618 -14.143478 -1.429702 0.996014 -0.569404 -0.0 0.0 -1e-06 
0.0 0.0 0.0 0.0 -0.0 0.0 0.77406 97.577202 -0.134706 1.275032 -0.200327 3.860531 0.136807 -0.389124 -1.343748 -0.209943 -0.68491 -5.316299 -0.247428 -2.828533 10.184421 -0.87364 2.614568 -6.442888 -1.124797 -1.318403 -3.515002 2.496924 -4.233975 -10.266746 7.7e-05 -2.3e-05 6e-06 0.01228 0.043928 -0.004396 0.706814 -3.703962 -10.490312 -0.686719 3.786886 -10.523297 -13.58333 -4.450558 14.479403 -59.634258 -5.646067 15.586804 -0.198978 -29.462374 0.18497 -2.156283 -5.352271 -20.570343 -5.882108 9.86129 0.702588 -10.936874 -0.360576 7.156205 1e-06 8.77483 -1e-06 -16.089363 17.895641 6.146982 -1.844033 2.498506 -2.507279 -10.163604 4.678946 4.621109 -20.97603 -4e-06 1e-06 -21.226295 2.451696 -3.594004 1e-06 -6e-06 -0.0 -1.362682 2.2408 -0.746324 -21.334921 0.58491 3.008322 -13.821218 -3e-06 -1e-06 -23.887175 -0.24908 -0.839485 -60.607609 2.5205 -0.924647 -0.294025 1.679687 0.833256 -14.218212 0.093215 1.300578 -34.212059 -0.287567 0.967168 -20.033218 0.964534 1.212842 0.0 -0.0 -2e-06 -3.440389 0.788234 0.501655 -15.928189 -3.167311 2.999705 -6.338828 -1e-06 0.0 -18.123455 3.648183 -4.905675 -4e-06 0.0 -1e-06 11.176661 8.055125 16.465813 60.437515 19.665533 25.825018 0.437309 21.995007 0.19687 0.139482 4.826833 -6.818869 2.243544 -5.255039 -3.180158 14.282897 -0.826595 6.952505 -2e-06 -12.69061 0.0 16.351572 -17.693043 2.45316 1.665667 -1.955922 -2.878298 4.7278 -4.170588 4.993925 11.020531 3e-06 -2e-06 12.109058 -3.735717 -2.866785 0.0 0.0 -1e-06 1.291986 -1.92855 -1.498089 14.800136 0.567468 3.865606 14.24258 -1.341738 -6.66066 19.631981 0.143926 -0.648247 49.696297 -0.487303 -6.397351 0.353029 -1.51115 -0.031941 20.222803 3.684311 2.316628 18.787283 7e-06 -4e-06 10.751634 -0.479867 1.397904 -1e-06 1e-06 -0.0 3.273807 0.305948 -0.580112 21.486824 11.830381 2.266132 8.16293 1e-06 -1e-06 18.399092 -3.798985 -4.94058 4e-06 0.0 -1e-06 3.984371 0.038791 -10.629969 0.04551 -0.18419 23.021887 -7.653948 3.695981 -16.384775 1.654882 -2.001454 -0.856541 0.0 0.0 2e-06 -8.906859 2.468528 -11.204489 -0.0779 0.268301 23.845118 10.431042 -11.390981 -16.550364 -1.439276 0.976553 -0.535112 -0.0 0.0 -1e-06 
0.0 0.0 0.0 0.0 -0.0 0.0 0.950989 96.453003 -0.494159 1.411816 -0.035004 4.000549 0.262762 -0.448129 -0.420241 -0.150266 -0.681313 -4.902892 -0.179407 -2.870976 9.835747 -1.06268 2.654345 -7.298271 -1.235115 -1.597294 -3.467187 2.314627 -4.295844 -11.342558 7.7e-05 -2.2e-05 6e-06 0.026941 0.079086 -0.004398 0.723208 -3.67921 -10.488807 -0.675935 3.830248 -10.511356 -11.783581 -4.927369 14.573986 -62.104221 -6.19111 13.385178 -0.365978 -28.988119 0.329311 -3.650558 -5.796857 -22.189548 -5.882112 9.861295 0.702591 -10.936882 -0.360576 7.156211 2e-06 8.774835 -0.0 -16.042364 17.926674 6.12686 -1.844035 2.498505 -2.50728 -10.163611 4.678948 4.621112 -20.976048 -6e-06 1e-06 -21.226313 2.451696 -3.594003 0.0 -6e-06 -1e-06 -1.362683 2.2408 -0.746325 -21.334938 0.584908 3.008324 -13.821228 -4e-06 -0.0 -23.887197 -0.249083 -0.839484 -60.737354 2.555145 -0.995836 -0.294025 1.679689 0.833257 -14.218224 0.093213 1.300581 -34.212086 -0.287569 0.967171 -20.033234 0.964534 1.212844 -0.0 -0.0 -0.0 -3.440392 0.788234 0.501655 -15.928206 -3.167314 2.999709 -6.338834 -2e-06 0.0 -18.123466 3.648184 -4.905677 -5e-06 -0.0 -1e-06 9.188743 8.526044 16.341249 63.133366 19.738987 24.369896 0.485634 22.461302 0.254798 0.072041 4.870052 -9.401958 2.243543 -5.25504 -3.180159 14.282902 -0.826595 6.952505 -3e-06 -12.690617 -1e-06 16.402319 -17.770546 2.501092 1.665668 -1.955922 -2.8783 4.727803 -4.170592 4.993927 11.020536 3e-06 -1e-06 12.10906 -3.735718 -2.866786 0.0 -0.0 -0.0 1.291986 -1.92855 -1.49809 14.800139 0.567468 3.865607 14.242584 -1.341737 -6.660661 19.631985 0.143929 -0.648246 49.646393 -0.481335 -6.435708 0.353029 -1.511153 -0.03194 20.222805 3.684314 2.316631 18.787287 5e-06 -3e-06 10.751637 -0.479867 1.397906 1e-06 0.0 1e-06 3.27381 0.305947 -0.580112 21.48683 11.830384 2.266132 8.162933 3e-06 -0.0 18.399096 -3.798985 -4.94058 4e-06 0.0 -0.0 3.763879 -0.127582 -13.964986 0.034796 -0.268196 29.094414 -7.665147 3.227637 -19.256361 1.673523 -2.011238 -0.795576 -0.0 -0.0 2e-06 -9.234167 3.111708 -14.630425 -0.094598 0.296425 30.313335 11.246346 -11.593686 -19.173122 -1.446576 0.931781 -0.549664 0.0 0.0 -1e-06 
